<svg width="304" height="24" viewBox="0 0 304 24" fill="none" xmlns="http://www.w3.org/2000/svg">
<path d="M132.617 3.352C132.201 4.352 131.233 5.24 129.585 5.576V5.128C131.233 4.768 132.369 3.664 132.369 2.112V1.384H132.857V2.112C132.857 3.664 134.049 4.768 135.649 5.128V5.576C134.025 5.224 133.033 4.352 132.617 3.352ZM129.465 8.056V7.648H135.777V8.056H129.465ZM142.416 4.504C141.8 4.664 140.832 4.728 139.976 4.728H137.376V4.288H139.984C140.816 4.288 141.8 4.24 142.416 4.08V1.864H137.376V1.424H142.904V4.16C142.904 5.016 142.84 5.952 142.712 6.6H142.232C142.336 6.024 142.4 5.224 142.416 4.504ZM136.984 8.056V7.648H143.296V8.056H136.984ZM145.448 2.864V3.624H150.408V4H147.896V4.768H150.856V5.152H144.464V4.768H147.408V4H144.96V2.496H149.872V1.776H144.96V1.392H150.36V2.864H145.448ZM145.448 7.352V8.112H150.544V8.472H144.96V6.984H149.872V6.272H144.96V5.888H150.36V7.352H145.448ZM156.248 7.888H154.408V1.384H154.896V7.464H156.328C157 7.464 157.544 7.312 157.904 6.984V1.336H158.384V4.288H159.68V1.296H160.16V8.384H159.68V4.728H158.384V8.304H157.904V7.4C157.56 7.728 156.984 7.888 156.248 7.888ZM165.112 7.888H161.968V4.408H164.656V1.864H161.968V1.424H165.136V4.848H162.456V7.464H165.184C165.96 7.464 166.664 7.24 167.08 6.848V1.296H167.568V8.376H167.08V7.264C166.704 7.672 165.944 7.888 165.112 7.888ZM172.28 2.92V1.872H169.488V1.432H172.768V2.872C172.768 5.56 171.696 7.336 169.44 7.928V7.488C171.32 6.92 172.28 5.336 172.28 2.92ZM174.6 8.376V1.296H175.088V8.376H174.6Z" fill="white"/>
<path fill-rule="evenodd" clip-rule="evenodd" d="M135.106 13.2133C135.353 12.7079 135.953 12.503 136.447 12.7557L152 20.712L167.553 12.7557C168.047 12.503 168.648 12.7079 168.895 13.2133C169.142 13.7187 168.941 14.3332 168.447 14.5859L152 22.9998L135.553 14.5859C135.059 14.3332 134.859 13.7187 135.106 13.2133Z" fill="white"/>
<path fill-rule="evenodd" clip-rule="evenodd" d="M136.026 11.1378C136.087 11.0147 136.235 10.9648 136.356 11.0264L152 18.942L167.644 11.0264C167.765 10.9648 167.913 11.0147 167.974 11.1378C168.035 11.2608 167.985 11.4104 167.864 11.472L152 19.499L136.136 11.472C136.015 11.4104 135.965 11.2608 136.026 11.1378Z" fill="white"/>
</svg>
