<svg width="64" height="64" viewBox="0 0 64 64" fill="none" xmlns="http://www.w3.org/2000/svg">
<path d="M31.789 26.4107H33.6764C34.1976 26.4107 34.6202 26.8339 34.6202 27.3559C34.6202 27.8778 34.1976 28.301 33.6764 28.301H29.2226C29.1074 28.3504 28.9429 28.4462 28.7995 28.598C28.6303 28.777 28.486 29.0355 28.486 29.4351C28.486 29.8347 28.6303 30.0932 28.7995 30.2722C28.9429 30.424 29.1074 30.5198 29.2226 30.5692H32.7501L32.8719 30.6025C33.619 30.8063 35.092 31.6813 35.092 33.5936C35.092 35.5059 33.619 36.3809 32.8719 36.5847L32.7501 36.618H31.789V37.7521C31.789 38.2741 31.3665 38.6972 30.8453 38.6972C30.3241 38.6972 29.9016 38.2741 29.9016 37.7521V36.618H28.0142C27.493 36.618 27.0704 36.1948 27.0704 35.6728C27.0704 35.1509 27.493 34.7277 28.0142 34.7277H32.468C32.5832 34.6783 32.7477 34.5825 32.8911 34.4307C33.0603 34.2517 33.2046 33.9932 33.2046 33.5936C33.2046 33.194 33.0603 32.9355 32.8911 32.7565C32.7477 32.6047 32.5832 32.5089 32.468 32.4595H28.9405L28.8187 32.4262C28.0716 32.2224 26.5986 31.3474 26.5986 29.4351C26.5986 27.5228 28.0716 26.6478 28.8187 26.444L28.9405 26.4107H29.9016V25.4656C29.9016 24.9437 30.3241 24.5205 30.8453 24.5205C31.3665 24.5205 31.789 24.9437 31.789 25.4656V26.4107Z" fill="white"/>
<path fill-rule="evenodd" clip-rule="evenodd" d="M50.0953 25.7201C50.7696 27.7171 51.1351 29.8565 51.1351 32.0814C51.1351 43.0428 42.2623 51.9288 31.3172 51.9288C28.7093 51.9288 26.2191 51.4243 23.9386 50.5075L20.5234 54.9053C19.3899 56.3649 17.1872 56.3649 16.0537 54.9053L9.60155 46.5968C8.15525 44.7344 9.48051 42.0208 11.8364 42.0208H12.5936V38.6023C11.8845 36.5599 11.4992 34.3657 11.4992 32.0814C11.4992 21.12 20.372 12.2341 31.3172 12.2341C33.9423 12.2341 36.4482 12.7453 38.7411 13.6736V10.8353C38.7411 9.26942 40.0087 8 41.5723 8H47.4952C49.0588 8 50.3264 9.26942 50.3264 10.8353V16.9943H51.1636C53.5352 16.9943 54.8557 19.7398 53.3773 21.597L50.0953 25.7201ZM36.0162 17.7062C34.5372 17.2217 32.9578 16.9596 31.3172 16.9596C22.978 16.9596 16.2177 23.7299 16.2177 32.0814C16.2177 32.3988 16.2275 32.714 16.2468 33.0265H21.157C22.7206 33.0265 23.9882 34.2959 23.9882 35.8619V42.0208H24.7407C27.087 42.0208 28.411 44.7123 26.993 46.574C28.3629 46.9833 29.8144 47.2032 31.3172 47.2032C39.6563 47.2032 46.4166 40.4329 46.4166 32.0814C46.4166 31.4996 46.3838 30.9255 46.3199 30.3608C45.1318 31.3342 43.3216 31.1902 42.3176 29.9289L35.6853 21.597C34.6756 20.3285 34.9715 18.6457 36.0162 17.7062ZM49.2877 23.7024L49.2871 23.7011L45.8615 28.0046L45.8619 28.0061L45.2693 28.7506C44.8915 29.2252 44.1712 29.2252 43.7934 28.7506L37.1612 20.4187C36.6684 19.7997 37.1086 18.8845 37.8991 18.8845H40.6286V10.8353C40.6286 10.3134 41.0511 9.89022 41.5723 9.89022H47.4952C48.0164 9.89022 48.4389 10.3134 48.4389 10.8353V18.8845H51.1636C51.9541 18.8845 52.3943 19.7997 51.9015 20.4187L49.2877 23.7024ZM14.4811 42.5566V43.911H11.8364C11.0511 43.911 10.6093 44.8155 11.0914 45.4364L17.5436 53.7449C17.9214 54.2314 18.6557 54.2314 19.0335 53.7449L25.4856 45.4364C25.9677 44.8155 25.526 43.911 24.7407 43.911H22.1007V35.8619C22.1007 35.3399 21.6782 34.9168 21.157 34.9168H15.4248C15.4191 34.9168 15.4134 34.9168 15.4078 34.9169C14.8951 34.9268 14.4826 35.3461 14.4826 35.8618V42.5591L14.4811 42.5566Z" fill="white"/>
</svg>
