<svg width="56" height="56" viewBox="0 0 56 56" fill="none" xmlns="http://www.w3.org/2000/svg">
<path d="M23.6367 33.5974C23.9014 39.3871 28.6792 43.9998 34.5343 43.9998C36.4714 43.9998 38.2932 43.4941 39.8718 42.6069L43.7883 43.9124C44.7575 44.2355 45.6795 43.3135 45.3564 42.3444L44.0508 38.4276C44.9377 36.8491 45.4433 35.0276 45.4433 33.0907C45.4433 27.0658 40.5592 22.1816 34.5343 22.1816C33.783 22.1816 33.0494 22.2576 32.3409 22.4022C32.3486 22.5702 32.3524 22.7391 32.3524 22.9089C32.3524 23.0791 32.3485 23.2484 32.3408 23.4168C33.0464 23.2575 33.7805 23.1734 34.5343 23.1734C40.0115 23.1734 44.4516 27.6135 44.4516 33.0907C44.4516 34.9652 43.9315 36.7183 43.0278 38.2134C42.9897 38.2765 42.9806 38.353 43.0039 38.4229L44.4156 42.658C44.4802 42.8518 44.2958 43.0362 44.102 42.9716L39.8671 41.56C39.7972 41.5367 39.7206 41.5458 39.6576 41.5839C38.1623 42.4879 36.409 43.0081 34.5343 43.0081C29.1431 43.0081 24.7567 38.7064 24.6202 33.3482C24.2984 33.446 23.9703 33.5293 23.6367 33.5974Z" fill="#313A48"/>
<path d="M12.9824 28.2413C13.0057 28.1714 12.9966 28.0949 12.9585 28.0318C12.0548 26.5366 11.5347 24.7836 11.5347 22.9091C11.5347 17.4319 15.9749 12.9917 21.4521 12.9917C23.2036 12.9917 24.8492 13.4458 26.2773 14.2427C26.4797 14.3556 26.7338 14.3265 26.8976 14.1627C27.1239 13.9364 27.0833 13.5584 26.8046 13.4012C25.2233 12.509 23.3971 12 21.4521 12C15.4271 12 10.543 16.8842 10.543 22.9091C10.543 24.846 11.0486 26.6675 11.9355 28.2459L10.6299 32.1627C10.3069 33.1319 11.2289 34.0538 12.198 33.7308L16.1145 32.4253C17.6932 33.3124 19.5149 33.8182 21.4521 33.8182C27.477 33.8182 32.3612 28.934 32.3612 22.9091C32.3612 20.6939 31.7009 18.6329 30.5664 16.9122C30.3982 16.6571 30.0398 16.6306 29.8237 16.8467C29.6509 17.0195 29.6296 17.2912 29.7631 17.4959C30.779 19.0524 31.3694 20.9118 31.3694 22.9091C31.3694 28.3863 26.9293 32.8264 21.4521 32.8264C19.5773 32.8264 17.824 32.3062 16.3287 31.4023C16.2657 31.3642 16.1891 31.355 16.1192 31.3783L11.8844 32.79C11.6905 32.8546 11.5061 32.6702 11.5707 32.4763L12.9824 28.2413Z" fill="#313A48"/>
<path d="M28.6286 15.918C28.9024 15.918 29.1244 15.696 29.1244 15.4222C29.1244 15.1483 28.9024 14.9263 28.6286 14.9263C28.3547 14.9263 28.1327 15.1483 28.1327 15.4222C28.1327 15.696 28.3547 15.918 28.6286 15.918Z" fill="#313A48"/>
<path fill-rule="evenodd" clip-rule="evenodd" d="M24.5968 27.8067C23.6906 28.3893 22.6122 28.7272 21.4549 28.7272C18.2416 28.7272 15.6367 26.1223 15.6367 22.909C15.6367 19.6957 18.2416 17.0908 21.4549 17.0908C24.6682 17.0908 27.2731 19.6957 27.2731 22.909C27.2731 24.439 26.6825 25.8311 25.7169 26.8697L27.0601 28.2129C27.3441 28.4969 27.3441 28.9574 27.0601 29.2414C26.7761 29.5255 26.3156 29.5255 26.0316 29.2414L24.5968 27.8067ZM23.5357 26.7455C22.9172 27.0817 22.2083 27.2726 21.4549 27.2726C19.0449 27.2726 17.0913 25.319 17.0913 22.909C17.0913 20.499 19.0449 18.5454 21.4549 18.5454C23.8649 18.5454 25.8185 20.499 25.8185 22.909C25.8185 24.0373 25.3903 25.0657 24.6874 25.8403L22.6964 23.8493C22.4124 23.5653 21.9519 23.5653 21.6679 23.8493C21.3839 24.1333 21.3839 24.5938 21.6679 24.8778L23.5357 26.7455Z" fill="#D29B4A"/>
<path fill-rule="evenodd" clip-rule="evenodd" d="M35.3573 28.7271C35.0223 28.0571 34.0661 28.0571 33.7311 28.7271L29.5301 37.1292C29.3504 37.4884 29.4961 37.9253 29.8553 38.1049C30.2146 38.2845 30.6514 38.1389 30.831 37.7797L32.0709 35.3C32.1601 35.3391 32.2587 35.3608 32.3623 35.3608H36.9025C36.9499 35.3608 36.9963 35.3562 37.0413 35.3476L38.2573 37.7797C38.437 38.1389 38.8738 38.2845 39.2331 38.1049C39.5923 37.9253 39.738 37.4884 39.5583 37.1292L35.3573 28.7271ZM36.3206 33.9063L34.5442 30.3534L32.7678 33.9062L36.3206 33.9063Z" fill="#D29B4A"/>
</svg>
