<svg width="64" height="64" viewBox="0 0 64 64" fill="none" xmlns="http://www.w3.org/2000/svg">
<path d="M29.4908 48.5417C29.4908 49.6312 28.5797 50.5143 27.4558 50.5143C26.3318 50.5143 25.4207 49.6312 25.4207 48.5417C25.4207 47.4522 26.3318 46.5691 27.4558 46.5691C28.5797 46.5691 29.4908 47.4522 29.4908 48.5417Z" fill="white"/>
<path fill-rule="evenodd" clip-rule="evenodd" d="M31.8067 22.0803C31.2921 22.5791 30.467 22.5934 29.9345 22.1233L29.5431 21.7459L22.988 15.392C22.396 14.8182 21.4142 14.3849 20.3976 14.2756C19.3265 14.1605 18.0348 14.3895 16.9996 15.3912C16.0242 16.335 15.7117 17.3965 15.8492 18.4579C15.9635 19.3406 16.393 20.1729 16.7024 20.7727L16.7643 20.8927L20.9622 27.8673C21.1457 28.1721 21.1951 28.5357 21.0993 28.8762L19.8023 33.484C17.8986 32.8425 15.6998 33.2589 14.179 34.733L12.5895 36.2737C10.4702 38.328 10.4702 41.6586 12.5895 43.7129L23.6761 54.4593C25.7954 56.5136 29.2315 56.5136 31.3509 54.4593L32.9404 52.9186C34.0904 51.8038 34.6164 50.3132 34.5183 48.8547C34.8479 48.8402 35.1786 48.7866 35.503 48.6923L39.9862 47.3886C40.7194 47.1754 41.3757 46.7661 41.8798 46.2077L48.1836 39.2243L50.7334 36.7528C52.3229 35.212 52.3229 32.714 50.7334 31.1733C50.2138 30.6696 49.5886 30.3306 48.9269 30.1563C49.5058 28.738 49.2035 27.0601 48.02 25.913C47.574 25.4806 47.0502 25.1696 46.4922 24.9799C46.5549 23.8974 46.1597 22.7947 45.3066 21.9677L45.2818 21.9439L52.1576 15.2791C52.9163 14.5437 53.0766 13.3994 52.9706 12.4769C52.8552 11.4732 52.3978 10.3643 51.4791 9.47401C50.5606 8.58388 49.4167 8.14042 48.3813 8.02855C47.4298 7.92573 46.249 8.08108 45.4902 8.81669L31.8067 22.0803ZM47.382 10.7025L33.7254 23.9401C33.3888 24.2664 33.0079 24.5236 32.6014 24.7117C33.654 25.8229 34.5102 27.1571 34.9424 28.6938C35.353 30.1536 35.8116 32.1881 35.8633 34.1754C35.9027 35.6887 35.7127 37.3902 34.884 38.7677C34.5066 39.3952 33.6311 39.3906 33.1023 38.8759C32.5736 38.3613 32.5841 37.5077 32.8278 36.8209C33.0683 36.1428 33.1776 35.2749 33.1507 34.2417C33.1069 32.5598 32.7105 30.758 32.3245 29.3857C31.9921 28.2037 31.2724 27.1228 30.2995 26.1848L28.0526 24.0186C28.0245 23.9929 27.9968 23.9667 27.9693 23.9401L21.0693 17.2518C20.9829 17.1681 20.6084 16.9446 20.0986 16.8898C19.6435 16.8409 19.239 16.9407 18.9166 17.2526C18.5343 17.6226 18.5086 17.8761 18.5415 18.1302C18.5914 18.5151 18.7991 18.9534 19.1528 19.6418L23.306 26.5419C23.8564 27.4564 24.0045 28.547 23.717 29.5684L22.3953 34.2642C22.2672 34.7195 22.4006 35.2065 22.7449 35.5402L33.3741 45.8433C33.7271 46.1854 34.2453 46.312 34.7233 46.173L39.2065 44.8693C39.4509 44.7983 39.6697 44.6618 39.8377 44.4757L43.4923 40.4271C42.9849 40.2347 42.5093 39.9399 42.0993 39.5425C40.9158 38.3953 40.6135 36.7175 41.1924 35.2992C40.5307 35.1248 39.9055 34.7858 39.3859 34.2821C38.5327 33.4552 38.1375 32.3524 38.2002 31.2699C37.6423 31.0802 37.1185 30.7692 36.6724 30.3369C35.0829 28.7962 35.0829 26.2981 36.6724 24.7574L39.5505 21.9677C40.3909 21.1531 41.5074 20.7692 42.6081 20.816L50.2118 13.4456C50.2194 13.43 50.2349 13.3942 50.2505 13.3315C50.2834 13.1996 50.3011 13.0053 50.2738 12.7681C50.2191 12.2922 49.9978 11.7577 49.5606 11.334C49.1233 10.9102 48.5717 10.6956 48.0807 10.6425C47.8359 10.6161 47.6356 10.6333 47.4996 10.665C47.435 10.6801 47.3982 10.6951 47.382 10.7025ZM48.8148 33.0331C49.3446 33.5467 49.3446 34.3794 48.8148 34.893L45.9367 37.6827C45.4069 38.1963 44.5478 38.1963 44.018 37.6827C43.4882 37.1691 43.4882 36.3364 44.018 35.8229L46.8961 33.0331C47.4259 32.5196 48.2849 32.5196 48.8148 33.0331ZM46.1013 27.7728C46.6311 28.2864 46.6303 29.1198 46.1005 29.6334L43.2233 32.4223C42.6934 32.9359 41.8344 32.9359 41.3046 32.4223C40.9785 32.1063 40.8531 31.6694 40.9283 31.2605C40.9754 31.0048 41.1016 30.7593 41.3054 30.5617L44.1826 27.7728C44.4475 27.516 44.7947 27.3876 45.142 27.3876C45.2399 27.3876 45.3377 27.3978 45.4338 27.4182C45.6784 27.4702 45.9111 27.5884 46.1013 27.7728ZM43.7641 24.9894C43.7171 25.245 43.5917 25.4898 43.3879 25.6873L40.5098 28.4771C40.2449 28.7338 39.8977 28.8622 39.5505 28.8622C39.4526 28.8622 39.3547 28.852 39.2586 28.8316C39.014 28.7796 38.7813 28.6615 38.5911 28.4771C38.0613 27.9635 38.0616 27.1305 38.5914 26.617L41.4692 23.8275C41.9908 23.3219 42.8314 23.3141 43.3629 23.8039L43.377 23.8171L43.3879 23.8275C43.7139 24.1435 43.8393 24.5804 43.7641 24.9894ZM14.5082 41.8531L25.5948 52.5995C26.6544 53.6266 28.3725 53.6266 29.4322 52.5995L31.0217 51.0587C32.0813 50.0316 32.0813 48.3663 31.0217 47.3391L19.9351 36.5928C18.8754 35.5656 17.1574 35.5656 16.0977 36.5928L14.5082 38.1335C13.4485 39.1606 13.4485 40.826 14.5082 41.8531Z" fill="white"/>
</svg>
