<svg width="64" height="64" viewBox="0 0 64 64" fill="none" xmlns="http://www.w3.org/2000/svg">
<path fill-rule="evenodd" clip-rule="evenodd" d="M11.207 27.5722C11.0166 27.9531 11.0001 28.4631 11.0001 29V45.6716C11.0001 45.9368 11.1054 46.1911 11.293 46.3787L19.1214 54.2071C19.684 54.7697 20.0001 55.5328 20.0001 56.3284V57.5H29.0001V50.3284C29.0001 50.0632 28.8947 49.8089 28.7072 49.6213L17.813 38.7272C17.8011 38.7215 17.774 38.7101 17.7264 38.6986C17.6261 38.6744 17.4784 38.6613 17.298 38.6814C16.9363 38.7216 16.5297 38.8846 16.2072 39.2071C16.1289 39.2854 16.0601 39.3684 16.0001 39.4547V41.0858L21.5001 46.5858C21.8906 46.9763 21.8906 47.6095 21.5001 48C21.1096 48.3905 20.4764 48.3905 20.0859 48L14.5636 42.4777C14.3849 42.2991 14.2432 42.087 14.1465 41.8536C14.0498 41.6201 14.0001 41.37 14.0001 41.1173V40.5545V38.9493V29C14.0001 28.4631 13.9836 27.9531 13.7932 27.5722C13.7121 27.4101 13.6047 27.2862 13.4451 27.194C13.279 27.098 12.9924 27 12.5001 27C12.0078 27 11.7212 27.098 11.555 27.194C11.3955 27.2862 11.2881 27.4101 11.207 27.5722ZM16.0001 36.978V29C16.0001 28.9842 16.0001 28.9679 16.0001 28.9509C16.0007 28.4697 16.0018 27.5174 15.582 26.6778C15.3506 26.2149 14.9892 25.7763 14.4457 25.4623C13.9087 25.152 13.2578 25 12.5001 25C11.7424 25 11.0915 25.152 10.5545 25.4623C10.0109 25.7763 9.6496 26.2149 9.41815 26.6778C8.99837 27.5174 8.99948 28.4697 9.00004 28.9509C9.00006 28.9679 9.00008 28.9842 9.00008 29V45.6716C9.00008 46.4672 9.31615 47.2303 9.87876 47.7929L17.7072 55.6213C17.8947 55.8089 18.0001 56.0632 18.0001 56.3284V59.5H31.0001V50.3284C31.0001 49.5328 30.684 48.7697 30.1214 48.2071L19.2072 37.2929C18.6484 36.7341 17.7786 36.6157 17.0772 36.6936C16.7271 36.7325 16.3601 36.8245 16.0001 36.978Z" fill="white"/>
<path fill-rule="evenodd" clip-rule="evenodd" d="M54.793 27.5722C54.9834 27.9531 54.9999 28.4631 54.9999 29V45.6716C54.9999 45.9368 54.8946 46.1911 54.707 46.3787L46.8786 54.2071C46.316 54.7697 45.9999 55.5328 45.9999 56.3284V57.5H36.9999V50.3284C36.9999 50.0632 37.1053 49.8089 37.2928 49.6213L48.187 38.7272C48.1989 38.7215 48.226 38.7101 48.2736 38.6986C48.3739 38.6744 48.5216 38.6613 48.702 38.6814C49.0637 38.7216 49.4703 38.8846 49.7928 39.2071C49.8711 39.2854 49.9399 39.3684 49.9999 39.4547V41.0858L44.4999 46.5858C44.1094 46.9763 44.1094 47.6095 44.4999 48C44.8904 48.3905 45.5236 48.3905 45.9141 48L51.4364 42.4777C51.6151 42.2991 51.7568 42.087 51.8535 41.8536C51.9502 41.6201 51.9999 41.37 51.9999 41.1173V40.5545V38.9493V29C51.9999 28.4631 52.0164 27.9531 52.2068 27.5722C52.2879 27.4101 52.3953 27.2862 52.5549 27.194C52.721 27.098 53.0076 27 53.4999 27C53.9922 27 54.2788 27.098 54.445 27.194C54.6045 27.2862 54.7119 27.4101 54.793 27.5722ZM49.9999 36.978V29C49.9999 28.9842 49.9999 28.9679 49.9999 28.9509C49.9993 28.4697 49.9982 27.5174 50.418 26.6778C50.6494 26.2149 51.0108 25.7763 51.5543 25.4623C52.0913 25.152 52.7422 25 53.4999 25C54.2576 25 54.9085 25.152 55.4455 25.4623C55.9891 25.7763 56.3504 26.2149 56.5818 26.6778C57.0016 27.5174 57.0005 28.4697 57 28.9509C56.9999 28.9679 56.9999 28.9842 56.9999 29V45.6716C56.9999 46.4672 56.6838 47.2303 56.1212 47.7929L48.2928 55.6213C48.1053 55.8089 47.9999 56.0632 47.9999 56.3284V59.5H34.9999V50.3284C34.9999 49.5328 35.316 48.7697 35.8786 48.2071L46.7928 37.2929C47.3516 36.7341 48.2214 36.6157 48.9228 36.6936C49.2729 36.7325 49.6399 36.8245 49.9999 36.978Z" fill="white"/>
<path fill-rule="evenodd" clip-rule="evenodd" d="M43.705 21L22.2914 21C19.6719 21 18.3106 17.8782 20.093 15.9586L30.7998 4.42826C31.9867 3.15006 34.0097 3.15006 35.1966 4.42826L45.9034 15.9586C47.6858 17.8782 46.3245 21 43.705 21ZM43.705 19C44.5782 19 45.0319 17.9594 44.4378 17.3196L33.731 5.78916C33.3354 5.3631 32.6611 5.3631 32.2654 5.78916L21.5586 17.3196C20.9645 17.9594 21.4183 19 22.2914 19L43.705 19Z" fill="white"/>
<path fill-rule="evenodd" clip-rule="evenodd" d="M24 19L42 19L42 31C42 33.2091 40.2091 35 38 35L28 35C25.7909 35 24 33.2091 24 31L24 19ZM38 33C39.1046 33 40 32.1046 40 31L40 21L26 21L26 31C26 32.1046 26.8954 33 28 33L38 33Z" fill="white"/>
<path d="M40 31C40 32.1046 39.1046 33 38 33V27C38 25.3431 36.6569 24 35 24H31C29.3431 24 28 25.3431 28 27L28 33C26.8954 33 26 32.1046 26 31V21H40L40 31Z" fill="white"/>
</svg>
